<?xml version="1.0" standalone="no"?>
<!DOCTYPE svg PUBLIC "-//W3C//DTD SVG 20010904//EN"
 "http://www.w3.org/TR/2001/REC-SVG-20010904/DTD/svg10.dtd">
<svg version="1.0" xmlns="http://www.w3.org/2000/svg"
 width="500.000000pt" height="500.000000pt" viewBox="0 0 500.000000 500.000000"
 preserveAspectRatio="xMidYMid meet">
<metadata>
Created by potrace 1.14, written by Peter Selinger 2001-2017
</metadata>
<g transform="translate(0.000000,500.000000) scale(0.100000,-0.100000)"
fill="#000000" stroke="none">
<path d="M2355 4852 c-2 -2 -18 -4 -36 -4 -19 -1 -37 -6 -41 -12 -5 -7 -8 -7
-8 2 0 8 -5 10 -12 5 -23 -14 -50 -14 -42 -1 6 10 4 10 -7 2 -8 -6 -24 -10
-36 -9 -13 1 -23 -3 -23 -8 0 -5 -6 -7 -14 -4 -7 3 -19 0 -26 -6 -10 -9 -11
-9 -5 2 6 11 4 13 -11 6 -10 -4 -27 -8 -36 -9 -10 0 -18 -4 -18 -9 0 -5 -7 -4
-15 3 -11 9 -15 9 -15 1 0 -7 -4 -10 -9 -6 -5 3 -12 1 -16 -5 -4 -6 -11 -8
-16 -4 -5 3 -15 2 -22 -4 -22 -16 -49 -23 -41 -9 5 8 2 7 -9 -2 -10 -8 -20
-11 -24 -7 -3 3 -17 -1 -30 -9 -17 -12 -23 -12 -23 -3 0 9 -3 8 -10 -2 -5 -8
-10 -11 -10 -6 0 6 -7 1 -16 -10 -8 -10 -13 -13 -9 -6 7 15 -11 16 -20 2 -4
-6 -16 -8 -27 -4 -14 4 -18 2 -14 -5 6 -10 -6 -15 -26 -12 -5 0 -8 -3 -8 -9 0
-5 -5 -10 -11 -10 -5 0 -7 6 -3 13 4 6 -1 5 -12 -4 -17 -14 -44 -28 -66 -34
-5 -2 -11 -4 -15 -5 -5 -1 -12 -2 -16 -1 -4 1 -10 -6 -13 -14 -4 -8 -10 -15
-16 -15 -5 0 -6 6 -2 13 6 9 5 9 -8 0 -8 -7 -19 -9 -23 -5 -5 4 -5 -1 -2 -11
4 -11 3 -16 -3 -12 -6 3 -10 0 -10 -7 0 -10 -2 -10 -9 1 -7 11 -11 10 -20 -5
-6 -11 -11 -15 -11 -10 0 5 -7 3 -15 -4 -8 -6 -20 -8 -27 -4 -7 4 -10 3 -5 -1
8 -9 -21 -45 -36 -45 -6 0 -2 7 9 15 10 8 13 15 7 15 -7 0 -18 -9 -25 -19 -6
-10 -17 -17 -23 -14 -7 2 -15 -3 -19 -12 -3 -9 -10 -13 -16 -10 -5 3 -10 1
-10 -5 0 -7 -7 -9 -16 -6 -14 5 -15 4 -5 -8 11 -13 9 -15 -7 -11 -12 2 -23 -3
-26 -12 -4 -9 -9 -13 -13 -10 -3 4 -12 -1 -20 -11 -8 -9 -11 -11 -7 -3 5 10 3
12 -5 7 -7 -5 -10 -14 -7 -21 3 -9 -2 -11 -16 -7 -13 3 -19 1 -15 -5 6 -10
-40 -38 -56 -34 -5 1 -6 -3 -2 -9 3 -5 1 -10 -5 -10 -6 0 -8 -4 -5 -10 3 -5 0
-7 -8 -4 -9 3 -23 -7 -37 -25 -12 -17 -27 -31 -34 -31 -8 0 -21 -10 -30 -22
-9 -13 -14 -16 -10 -8 7 13 5 13 -9 1 -9 -7 -14 -18 -10 -24 3 -6 1 -7 -6 -3
-6 4 -14 0 -17 -8 -3 -9 -11 -13 -18 -9 -6 4 -4 -2 4 -12 12 -15 12 -17 1 -10
-10 6 -22 -1 -39 -21 -13 -16 -21 -23 -17 -15 6 9 4 12 -3 7 -7 -4 -12 -14
-12 -22 0 -8 -5 -14 -11 -14 -5 0 -7 -5 -4 -10 4 -6 2 -9 -3 -8 -6 2 -25 -13
-43 -32 -17 -19 -28 -29 -24 -21 5 10 4 12 -4 7 -6 -4 -9 -11 -6 -16 6 -10
-50 -71 -59 -63 -3 3 -3 -4 -1 -16 2 -12 0 -19 -5 -16 -5 3 -17 -8 -26 -24
-10 -17 -22 -27 -27 -24 -6 3 -7 1 -4 -4 4 -6 -5 -23 -18 -37 -14 -15 -23 -31
-20 -36 3 -5 -4 -14 -15 -20 -11 -6 -18 -15 -15 -21 4 -5 1 -9 -4 -9 -6 0 -11
-7 -11 -15 0 -8 -4 -15 -9 -15 -5 0 -13 -9 -16 -20 -4 -11 -11 -17 -17 -14 -7
4 -8 2 -4 -4 7 -12 -17 -56 -25 -47 -3 2 -5 -5 -6 -16 -1 -10 -11 -32 -22 -48
-11 -15 -18 -31 -14 -35 3 -3 1 -6 -6 -6 -7 0 -10 -4 -6 -9 3 -6 -3 -14 -12
-20 -10 -6 -14 -11 -9 -11 5 0 2 -8 -5 -17 -12 -14 -12 -16 1 -9 8 4 6 0 -5
-9 -20 -16 -21 -19 -24 -51 0 -8 -5 -13 -10 -10 -5 4 -8 -6 -6 -20 1 -15 -3
-28 -12 -31 -8 -3 -12 -11 -9 -18 3 -8 -1 -16 -9 -19 -8 -3 -11 -13 -8 -25 3
-13 1 -21 -6 -21 -7 0 -9 -4 -6 -10 3 -5 1 -10 -6 -10 -8 0 -7 -5 2 -17 12
-15 12 -16 -4 -10 -12 4 -16 3 -11 -4 4 -6 0 -15 -7 -20 -12 -7 -12 -9 0 -9
10 0 11 -3 3 -13 -6 -7 -12 -24 -14 -37 -2 -14 -7 -31 -12 -39 -5 -8 -3 -16 5
-22 11 -7 11 -9 -3 -9 -11 0 -16 -6 -13 -20 2 -11 0 -20 -5 -20 -4 0 -7 -11
-5 -25 1 -14 -1 -25 -5 -25 -4 0 -7 -12 -6 -27 0 -16 -5 -27 -11 -26 -11 2
-12 -21 -1 -33 8 -8 -2 -37 -16 -46 -7 -6 -6 -11 4 -18 10 -6 11 -13 5 -17
-10 -8 -13 -24 -17 -103 -1 -19 -7 -38 -12 -42 -7 -5 -6 -8 3 -8 11 0 11 -3 0
-17 -12 -14 -12 -16 0 -8 10 6 12 4 6 -6 -11 -17 -13 -99 -3 -105 5 -3 5 -11
1 -17 -12 -19 -11 -57 1 -57 7 0 7 -3 1 -8 -12 -9 -14 -82 -2 -82 4 0 5 -6 0
-12 -12 -21 -12 -38 0 -38 7 0 5 -5 -3 -10 -12 -8 -12 -10 -1 -10 10 0 11 -3
2 -14 -10 -11 -8 -17 6 -25 10 -6 13 -11 7 -11 -13 0 -13 -42 1 -52 6 -5 5
-11 -4 -17 -8 -5 -9 -11 -3 -15 6 -3 9 -20 7 -36 -3 -19 0 -30 8 -30 7 0 6 -4
-3 -10 -8 -5 -10 -10 -5 -10 6 0 16 -10 24 -22 13 -22 13 -22 -4 -8 -17 14
-18 13 -11 -5 4 -11 8 -24 9 -30 1 -5 7 -13 12 -17 6 -5 5 -8 -4 -8 -10 0 -11
-3 -3 -13 6 -7 12 -25 14 -39 2 -15 7 -30 11 -34 4 -4 2 -13 -3 -19 -8 -9 -6
-14 5 -19 10 -4 14 -14 11 -31 -3 -14 -1 -23 5 -20 5 4 9 -5 9 -19 0 -14 4
-26 9 -26 4 0 7 -11 6 -25 -2 -14 0 -25 5 -25 4 0 11 -7 14 -16 4 -9 2 -13 -5
-8 -6 4 -5 -4 2 -17 7 -13 12 -28 11 -33 -2 -5 5 -6 14 -2 13 5 15 4 5 -7 -9
-11 -8 -17 4 -27 8 -7 15 -23 15 -37 0 -13 4 -22 9 -19 5 4 7 -2 4 -12 -2 -11
3 -26 12 -36 9 -9 13 -16 9 -16 -4 0 1 -10 12 -22 13 -14 14 -19 4 -14 -9 5
-8 2 2 -7 10 -8 14 -17 10 -21 -4 -4 1 -14 12 -21 10 -8 15 -18 11 -24 -3 -6
-1 -11 4 -11 6 0 11 -7 11 -15 0 -8 5 -15 11 -15 5 0 7 -5 4 -10 -3 -5 -1 -10
5 -10 6 0 8 -4 5 -10 -3 -5 -1 -10 5 -10 6 0 8 -4 5 -10 -3 -5 1 -10 10 -10 9
0 13 -4 10 -10 -3 -5 -1 -10 5 -10 7 0 10 -6 7 -14 -3 -8 1 -17 10 -20 8 -4
13 -13 9 -21 -3 -8 0 -14 7 -12 7 1 11 -6 11 -15 -1 -10 2 -16 6 -13 4 2 17
-14 29 -35 12 -22 26 -40 32 -40 5 0 9 -5 9 -11 0 -6 8 -18 18 -27 11 -10 12
-13 2 -8 -8 5 -3 -3 13 -18 15 -15 27 -31 27 -37 0 -6 5 -7 10 -4 6 3 10 -1
10 -9 0 -9 5 -16 10 -16 6 0 10 -7 10 -16 0 -8 5 -12 10 -9 10 6 15 -9 10 -30
-1 -5 1 -7 5 -3 7 6 75 -57 75 -71 0 -11 44 -51 57 -51 7 0 15 -10 18 -21 6
-17 9 -19 16 -8 7 11 9 10 9 -4 0 -10 5 -15 10 -12 6 4 9 3 8 -2 -2 -5 10 -22
26 -38 16 -17 25 -23 21 -15 -4 8 2 5 14 -8 13 -12 27 -19 34 -15 7 4 5 -2 -3
-12 -8 -10 -9 -16 -3 -11 7 4 20 -2 30 -14 10 -11 23 -20 30 -20 7 0 13 -5 13
-11 0 -5 5 -7 10 -4 5 3 10 -1 10 -9 0 -14 6 -18 26 -15 3 0 14 -10 25 -22 10
-12 19 -19 19 -14 0 4 8 -1 17 -12 10 -10 14 -12 8 -4 -7 10 -2 10 17 -3 26
-17 41 -35 16 -20 -7 4 -8 3 -4 -5 4 -6 11 -9 16 -6 5 3 18 -3 30 -15 11 -11
20 -15 20 -10 0 6 6 5 14 -2 8 -7 12 -16 9 -20 -2 -4 2 -5 10 -2 8 3 20 -2 27
-11 7 -8 19 -15 26 -15 8 0 14 -4 14 -10 0 -5 7 -7 15 -4 8 4 15 1 15 -6 0 -6
4 -8 10 -5 5 3 10 1 10 -4 0 -6 7 -11 15 -11 8 0 15 -4 15 -10 0 -5 6 -7 13
-4 8 3 20 -2 27 -11 7 -8 21 -15 31 -15 11 0 19 -5 19 -11 0 -5 5 -7 12 -3 6
4 17 -1 25 -11 9 -14 13 -15 13 -4 0 12 2 12 10 -1 5 -8 10 -11 10 -6 0 5 7 3
15 -4 8 -6 19 -9 25 -5 5 3 10 -2 10 -12 0 -15 2 -16 10 -3 7 11 10 11 10 2 0
-7 5 -10 10 -7 5 3 10 2 10 -2 0 -5 12 -10 27 -11 15 -1 30 -7 34 -13 3 -6 12
-10 20 -9 27 4 50 0 45 -8 -2 -4 5 -9 17 -9 20 -1 53 -8 67 -13 3 -1 9 -2 14
-1 4 1 14 -4 22 -10 11 -9 14 -9 14 1 0 9 3 10 13 1 8 -6 17 -8 20 -4 4 3 7 1
7 -7 0 -10 4 -10 17 1 14 12 16 12 8 0 -6 -11 -4 -13 8 -8 9 3 19 2 22 -3 3
-5 12 -7 20 -3 9 3 21 0 28 -5 8 -7 18 -7 27 -2 9 5 19 5 27 -2 7 -5 20 -8 28
-4 8 3 15 1 15 -4 0 -5 6 -7 14 -4 8 3 17 0 21 -6 5 -8 11 -8 21 1 11 9 14 9
14 -1 0 -10 3 -10 14 -1 10 8 16 9 21 1 4 -7 12 -7 25 0 10 6 21 6 24 2 3 -5
48 -8 100 -8 58 1 96 -3 96 -9 0 -5 4 -4 9 3 11 17 21 17 32 0 6 -8 9 -9 9 -1
0 7 15 10 40 9 22 -2 40 1 40 6 0 4 5 8 11 8 5 0 7 -4 4 -10 -4 -6 2 -7 17 -1
13 4 29 6 37 3 8 -2 11 0 8 5 -3 5 11 8 35 6 22 -2 47 2 54 8 11 9 14 8 14 -2
0 -12 2 -12 9 0 5 8 16 11 25 8 9 -4 16 -2 16 3 0 6 5 10 11 10 5 0 7 -6 3
-12 -4 -7 3 -4 16 7 14 12 20 14 15 5 -8 -13 -7 -13 8 -1 9 7 17 10 17 7 0 -4
8 -2 18 3 13 7 23 6 32 -2 10 -9 11 -9 6 1 -6 11 11 17 37 13 4 0 7 4 7 10 0
8 4 8 14 0 10 -9 16 -8 26 4 7 8 23 15 37 15 16 0 22 4 17 12 -5 10 -4 10 5 2
9 -9 19 -9 37 0 13 6 24 14 24 18 0 4 9 5 20 3 11 -2 20 0 20 5 0 5 9 7 20 5
11 -2 18 0 15 5 -6 10 31 24 44 15 6 -3 14 2 19 11 5 9 12 15 15 15 20 -3 28
0 22 9 -3 5 0 7 8 4 8 -3 18 0 22 6 6 9 10 9 16 -1 7 -11 9 -10 9 4 0 10 4 16
9 12 5 -3 16 1 24 9 8 8 18 12 22 8 3 -4 13 2 21 13 8 11 16 19 17 17 1 -2 15
1 30 7 17 7 25 15 21 23 -4 6 -3 8 4 4 6 -3 13 -2 17 4 3 5 15 10 26 10 10 0
19 4 19 9 0 5 9 11 21 14 12 3 18 10 14 16 -3 7 0 8 9 5 9 -4 18 1 22 10 3 9
10 13 15 10 5 -3 20 6 32 20 13 14 27 23 30 19 4 -3 7 -1 7 6 0 7 4 10 9 6 6
-3 15 4 21 15 6 11 14 19 18 16 8 -5 33 20 26 27 -3 2 2 7 11 11 11 4 14 2 10
-7 -4 -6 0 -4 8 5 8 10 17 14 21 10 4 -4 6 -1 4 7 -2 9 13 24 34 35 21 12 38
25 38 29 0 5 -5 5 -12 1 -7 -4 -8 -3 -4 4 4 7 14 12 22 12 8 0 14 5 14 11 0 6
7 8 16 5 8 -3 12 -2 9 3 -3 5 7 22 21 38 15 15 20 19 13 8 -14 -20 -13 -20 9
-1 12 11 22 25 22 33 0 7 3 12 8 10 4 -1 8 3 10 8 2 6 10 14 18 18 8 5 11 13
8 19 -4 7 -2 8 5 4 6 -4 14 0 17 8 3 9 10 13 15 10 5 -3 9 4 9 15 0 12 3 20 8
20 20 -3 25 2 12 12 -12 9 -11 10 8 6 12 -3 20 -1 17 3 -3 5 1 15 9 23 8 8 12
18 8 22 -4 5 1 5 11 2 10 -4 16 -3 12 3 -3 5 3 18 14 29 11 11 17 22 14 24 -2
3 5 8 18 12 17 6 19 9 8 16 -10 6 -11 9 -1 9 6 0 12 7 12 16 0 8 5 12 10 9 6
-3 10 1 10 9 0 9 5 16 10 16 6 0 10 7 10 15 0 8 3 15 8 15 4 0 13 9 20 21 11
17 11 20 0 14 -7 -4 -2 3 12 15 14 12 18 19 10 15 -10 -4 -9 -2 2 8 10 8 15
17 11 20 -3 4 -1 7 5 7 7 0 12 6 12 14 0 8 11 24 24 37 17 16 21 27 15 35 -6
8 -4 14 6 18 9 3 13 10 10 16 -3 5 -1 10 5 10 7 0 9 7 6 17 -4 10 -4 14 0 10
8 -7 34 37 34 58 0 7 5 15 11 17 7 2 12 18 13 35 0 17 3 31 6 30 3 -1 5 1 5 4
0 3 7 14 15 24 13 17 13 18 0 11 -8 -4 -4 2 10 14 21 18 22 21 5 15 -18 -6
-18 -5 3 15 23 21 30 36 12 25 -6 -3 -10 -1 -10 4 0 6 5 11 10 11 6 0 10 9 10
21 0 13 4 18 12 13 7 -5 9 -2 5 8 -3 9 0 21 6 28 9 10 9 11 0 6 -9 -5 -11 -2
-7 8 3 9 9 14 14 11 4 -2 5 7 2 22 -4 20 -2 24 9 18 8 -5 11 -5 7 -1 -4 5 -3
19 2 32 6 15 6 26 -1 30 -6 4 -6 11 2 20 6 7 14 12 18 10 3 -2 5 12 5 32 -1
21 4 40 10 44 8 6 7 8 -1 8 -7 0 -10 7 -7 15 4 8 9 13 13 11 3 -2 5 14 3 36
-3 24 0 38 5 35 5 -3 10 0 10 8 0 8 -5 15 -10 15 -5 0 -4 6 2 14 6 7 9 21 5
30 -4 9 -1 16 6 16 10 0 10 3 0 15 -10 12 -9 15 6 15 16 0 17 2 4 10 -13 8
-13 13 -2 31 8 11 9 19 4 15 -5 -3 -9 8 -9 24 0 16 3 27 7 25 4 -2 7 2 7 10 0
8 -5 15 -10 15 -5 0 -4 6 2 14 9 11 9 16 0 21 -8 6 -7 10 2 16 11 7 11 9 1 9
-8 0 -10 5 -5 13 11 16 12 58 1 79 -5 10 -3 18 5 21 9 4 9 6 0 6 -7 1 -13 6
-13 12 0 5 4 8 8 5 5 -3 9 1 9 9 0 8 -3 12 -6 11 -3 -2 -6 9 -6 25 0 16 5 29
10 29 6 0 3 5 -5 10 -13 9 -13 10 0 10 12 0 13 2 1 9 -8 6 -10 14 -5 22 12 20
14 40 3 33 -5 -3 -6 -10 -3 -16 4 -7 2 -8 -4 -4 -8 5 -9 13 -2 25 6 12 5 22
-2 29 -7 7 -8 12 -2 12 5 0 10 9 10 20 0 11 -4 20 -8 20 -4 0 -5 9 -3 20 2 11
-1 20 -7 20 -7 0 -6 6 2 15 7 9 8 15 2 15 -5 0 -9 14 -8 31 1 19 -3 33 -12 36
-11 5 -11 7 0 14 7 5 8 9 2 9 -10 0 -14 19 -17 97 -1 17 -4 29 -6 27 -7 -6
-31 17 -31 30 0 6 5 4 10 -4 7 -12 9 -10 7 7 0 12 -5 19 -11 16 -5 -4 -7 1 -3
9 3 9 0 24 -7 34 -6 11 -11 29 -10 42 1 12 -3 22 -8 22 -5 0 -6 5 -3 10 3 6
-2 10 -12 10 -15 0 -16 2 -3 10 9 6 11 10 3 10 -7 0 -10 7 -7 15 4 8 1 15 -6
15 -6 0 -9 4 -6 8 3 5 -2 22 -10 38 -9 16 -18 40 -21 54 -2 14 -12 34 -21 44
-13 15 -14 18 -2 12 8 -4 6 0 -4 8 -11 9 -20 26 -21 38 -1 12 -7 24 -14 26 -6
2 -9 8 -5 13 3 5 -2 12 -10 15 -9 3 -13 10 -10 15 3 5 -2 16 -10 25 -9 8 -16
24 -16 35 0 11 -4 17 -10 14 -5 -3 -10 3 -10 14 0 12 -5 21 -11 21 -5 0 -8 4
-4 9 3 6 -3 14 -12 20 -10 6 -14 11 -9 11 6 0 1 7 -10 16 -10 8 -12 12 -4 8
13 -7 13 -5 1 9 -7 9 -17 14 -22 11 -5 -3 -6 2 -3 10 3 9 1 16 -6 16 -6 0 -8
5 -5 10 3 6 -1 10 -10 10 -10 0 -15 6 -12 13 3 7 -4 19 -14 25 -10 7 -19 19
-19 27 0 8 -4 15 -10 15 -5 0 -10 7 -10 16 0 8 -4 12 -10 9 -5 -3 -10 -1 -10
5 0 6 -12 23 -27 37 -16 15 -22 23 -16 19 9 -5 11 -2 7 9 -4 9 -9 14 -11 11
-6 -6 -33 19 -33 29 0 12 -27 34 -34 28 -6 -6 -10 12 -7 30 0 4 -5 7 -12 7
-12 0 -47 34 -47 46 0 3 -6 12 -14 20 -11 11 -16 11 -19 1 -3 -6 -6 -1 -6 13
-1 20 -3 22 -11 10 -8 -13 -10 -12 -10 3 0 10 -13 26 -30 35 -16 9 -30 20 -30
25 0 8 -36 46 -47 50 -5 1 -6 6 -5 12 2 5 0 7 -4 3 -3 -4 -18 1 -32 12 -13 11
-28 17 -33 14 -5 -3 -6 2 -3 10 3 9 1 16 -4 16 -6 0 -18 7 -26 16 -12 12 -16
12 -17 2 0 -7 -5 -2 -10 11 -6 15 -14 21 -25 17 -8 -3 -13 -2 -11 2 2 4 -4 15
-15 25 -10 9 -18 12 -18 7 0 -6 -6 -5 -14 2 -8 7 -12 16 -9 21 2 4 -1 6 -9 5
-7 -2 -12 3 -10 11 3 12 0 12 -12 1 -11 -8 -16 -9 -16 -1 0 6 -7 11 -15 11 -8
0 -20 9 -27 19 -6 10 -18 17 -25 14 -7 -3 -13 1 -13 8 0 7 -3 10 -6 6 -4 -3
-13 1 -21 9 -8 8 -19 12 -24 9 -5 -4 -9 1 -9 10 0 9 -4 13 -10 10 -5 -3 -21 2
-35 11 -14 9 -25 13 -25 9 0 -5 -8 2 -19 13 -20 24 -36 29 -26 10 4 -7 -2 -3
-14 10 -13 15 -22 19 -27 11 -3 -6 -9 -7 -13 -3 -3 5 -15 16 -25 24 -17 13
-18 13 -11 1 5 -9 -3 -7 -21 6 -16 11 -35 18 -41 16 -7 -3 -16 3 -19 12 -5 13
-8 14 -15 3 -7 -10 -9 -10 -9 0 0 6 -11 12 -25 12 -14 0 -25 5 -25 11 0 6 -9
9 -19 6 -11 -3 -22 1 -25 8 -3 8 -13 12 -23 10 -10 -1 -32 3 -49 10 -24 10
-35 10 -44 2 -10 -9 -11 -9 -6 1 6 10 -10 15 -40 11 -4 0 -11 5 -15 13 -7 10
-9 10 -9 0 0 -7 -5 -10 -10 -7 -6 4 -8 9 -6 13 2 4 -16 7 -40 7 -24 -1 -44 2
-44 5 0 4 -16 6 -35 5 -19 0 -35 2 -35 6 0 4 -10 5 -22 1 -16 -4 -19 -2 -13 9
8 12 6 12 -8 0 -9 -7 -17 -9 -17 -4 0 11 -29 11 -48 -1 -7 -4 -12 -2 -12 4 0
7 -6 10 -14 7 -8 -3 -17 -1 -20 6 -3 9 -5 8 -5 -1 -1 -7 -5 -10 -11 -7 -18 11
-179 12 -173 1 3 -6 0 -5 -8 2 -16 15 -33 16 -23 0 5 -7 3 -8 -5 -3 -12 7 -90
13 -96 7z m-1510 -4012 c10 -11 16 -20 13 -20 -3 0 -13 9 -23 20 -10 11 -16
20 -13 20 3 0 13 -9 23 -20z"/>
<path d="M1006 4333 c-6 -14 -5 -15 5 -6 7 7 10 15 7 18 -3 3 -9 -2 -12 -12z"/>
</g>
</svg>
