
        <svg xmlns="http://www.w3.org/2000/svg" xmlns:xlink="http://www.w3.org/1999/xlink" version="1.1" width="3162.175444344336" height="460.18902350515134" viewBox="0 0 3162.175444344336 460.18902350515134">
			
			<g transform="scale(8.108772217216806) translate(10, 10)">
				<defs id="SvgjsDefs1021"/><g id="SvgjsG1022" featureKey="Df7oLJ-0" transform="matrix(0.5892255892255892,0,0,0.5892255892255892,-2.946422397086917,-10.932104162094166)" fill="#000"><g xmlns="http://www.w3.org/2000/svg"><g><g><g><path d="M75.195,72.96c-0.619,0-1.241-0.21-1.75-0.64c-1.146-0.967-1.291-2.681-0.324-3.827l15.609-18.493      L73.122,31.507c-0.967-1.146-0.822-2.859,0.324-3.827c1.146-0.968,2.859-0.823,3.827,0.323L94.36,48.248      c0.854,1.012,0.854,2.492,0,3.503L77.272,71.995C76.735,72.632,75.968,72.96,75.195,72.96z"/></g></g></g><g><g><g><path d="M24.805,72.96c-0.772,0-1.539-0.328-2.076-0.964L5.641,51.752c-0.854-1.012-0.854-2.492,0-3.503      l17.088-20.245c0.967-1.146,2.681-1.291,3.827-0.324c1.146,0.967,1.291,2.681,0.324,3.827L11.269,50.001l15.609,18.492      c0.967,1.146,0.823,2.859-0.323,3.827C26.045,72.749,25.423,72.96,24.805,72.96z"/></g></g></g><g><path d="M37.325,72.96c-0.492,0-0.99-0.134-1.438-0.414c-1.271-0.796-1.657-2.471-0.861-3.742L60.37,28.315    c0.796-1.271,2.472-1.656,3.743-0.861c1.271,0.796,1.657,2.471,0.861,3.742L39.63,71.685C39.115,72.508,38.23,72.96,37.325,72.96z    "/></g></g></g><g id="SvgjsG1023" featureKey="Ua4uQk-0" transform="matrix(2.109758996636699,0,0,2.109758996636699,70.46828809742333,-12.236604594920419)" fill="#000"><path d="M10.22 6 l3.22 0 l0 14 l-2.46 0 l-6.56 -8.14 l0 8.14 l-3.22 0 l0 -14 l2.5 0 l6.52 8.14 l0 -8.14 z M20.82 9.42 c2.36 0 5.48 1.78 5.48 5.42 c0 3.66 -3.12 5.36 -5.48 5.36 s-5.48 -1.7 -5.48 -5.36 c0 -3.64 3.12 -5.42 5.48 -5.42 z M20.82 12.2 c-1.2 0 -2.42 0.92 -2.42 2.64 c0 1.66 1.22 2.58 2.42 2.58 s2.44 -0.92 2.44 -2.58 c0 -1.72 -1.24 -2.64 -2.44 -2.64 z M46.019999999999996 18.5 c-1.26 1.12 -2.9 1.7 -4.8 1.7 c-3.96 0 -7.32 -2.94 -7.32 -7.2 s3.36 -7.2 7.32 -7.2 c1.88 0 3.5 0.6 4.72 1.66 l-1.94 2.18 c-0.7 -0.48 -1.64 -0.82 -2.58 -0.82 c-2.46 0 -4.16 1.76 -4.16 4.18 s1.7 4.18 4.16 4.18 c0.98 0 1.98 -0.38 2.68 -0.94 z M50.9 5.859999999999999 l0 14.14 l-3.16 0 l0 -14.14 l3.16 0 z M58.1 9.42 c2.36 0 5.48 1.78 5.48 5.42 c0 3.66 -3.12 5.36 -5.48 5.36 s-5.48 -1.7 -5.48 -5.36 c0 -3.64 3.12 -5.42 5.48 -5.42 z M58.1 12.2 c-1.2 0 -2.42 0.92 -2.42 2.64 c0 1.66 1.22 2.58 2.42 2.58 s2.44 -0.92 2.44 -2.58 c0 -1.72 -1.24 -2.64 -2.44 -2.64 z M70.42 9.42 c1.9 0 3.5 0.8 4.48 2.48 l-2.4 1.14 c-0.52 -0.44 -0.94 -0.84 -2.04 -0.84 c-1.2 0 -2.42 0.92 -2.42 2.62 c0 1.68 1.22 2.56 2.42 2.56 c1.1 0 1.52 -0.36 2.04 -0.8 l2.44 1.14 c-1.02 1.68 -2.58 2.44 -4.52 2.44 c-2.32 0 -5.44 -1.66 -5.44 -5.34 c0 -3.62 3.12 -5.4 5.44 -5.4 z M83.76 20 l-3.38 -4.04 l-0.66 0.7 l0 3.34 l-3.16 0 l0 -3.78 l0 -10.36 l3.16 0 l0 6.94 l2.94 -3.2 l3.78 0 l-4.12 4.34 l5.04 6.06 l-3.6 0 z M93.72 12.879999999999999 c-0.28 -0.72 -0.7 -0.96 -1.16 -0.96 c-0.42 0 -0.84 0.24 -0.84 0.64 c0 0.38 0.24 0.6 0.7 0.76 l1.32 0.46 c1.48 0.54 2.98 1.08 2.98 3.16 c0 2.1 -2.1 3.3 -4.26 3.3 c-1.94 0 -3.76 -1.14 -4.2 -2.96 l2.48 -0.78 c0.26 0.58 0.72 1.24 1.72 1.24 c0.68 0 1.12 -0.44 1.12 -0.84 c0 -0.2 -0.16 -0.46 -0.66 -0.66 l-1.22 -0.44 c-2.08 -0.76 -3.06 -1.82 -3.06 -3.3 c0 -1.94 1.8 -3.08 3.78 -3.08 c2.02 0 3.36 1.1 3.96 2.76 z M97.32000000000001 23.22 l1.96 -5.58 l2.62 0 l-1.84 5.58 l-2.74 0 z M112.28000000000002 17.04 l5.32 0 l0 2.96 l-8.54 0 l0 -14 l3.22 0 l0 11.04 z M122.82000000000002 17.04 l5.32 0 l0 2.96 l-8.54 0 l0 -14 l3.22 0 l0 11.04 z M141.96000000000004 18.5 c-1.26 1.12 -2.9 1.7 -4.8 1.7 c-3.96 0 -7.32 -2.94 -7.32 -7.2 s3.36 -7.2 7.32 -7.2 c1.88 0 3.5 0.6 4.72 1.66 l-1.94 2.18 c-0.7 -0.48 -1.64 -0.82 -2.58 -0.82 c-2.46 0 -4.16 1.76 -4.16 4.18 s1.7 4.18 4.16 4.18 c0.98 0 1.98 -0.38 2.68 -0.94 z"/></g>
			</g>
		</svg>
	